<?xml version="1.0" encoding="utf-8"?>
<!-- Generator: Adobe Illustrator 22.0.1, SVG Export Plug-In . SVG Version: 6.00 Build 0)  -->
<svg version="1.1" id="Layer_1" xmlns="http://www.w3.org/2000/svg" xmlns:xlink="http://www.w3.org/1999/xlink" x="0px" y="0px"
	 viewBox="0 0 1080 1080" style="enable-background:new 0 0 1080 1080;" xml:space="preserve">
<style type="text/css">
	.st0{fill:#26347B;}
	.st1{fill:#83C341;stroke:#83C341;stroke-width:0.5;stroke-miterlimit:10;}
	.st2{fill:#FFDD15;stroke:#FFDD15;stroke-width:0.25;stroke-miterlimit:10;}
	.st3{fill:#EC1C24;stroke:#EC1C24;stroke-width:0.5;stroke-miterlimit:10;}
</style>
<path class="st0" d="M992.7,476.6c-5-0.9-29.2-3-29.2-16.8c0-9.4,9.4-13.2,20.9-13.4c12.6-0.1,27.8,4.1,36.1,10.5l16.9-20.4
	c-16.1-11.5-35.8-17.1-53.4-16.9c-25.4,0.3-47,12.6-49.7,37.1c-11.7-22-34.8-37.3-64.5-37.3c-33.6,0-61.2,21-69.9,51h-69.4v27.5H772
	c-0.2,1.2-0.4,2.4-0.7,3.5c-4.5,20.2-19.6,33.9-40.8,33.9c-25.2,0-41.8-20.4-41.8-44.4c0-25.1,17-44.5,41.8-44.5
	c9.4,0,17.6,2.6,24.9,7.9l17.6-22.3c-12.5-8.4-26.7-12.6-42.5-12.6c-40.1,0-71,29.8-72.7,68.3l-27-68.2h-29.5l-18.6,46.8
	c0.1-1.3,0.2-2.6,0.2-3.9c0-26.1-19.2-42.7-43.3-42.7H467v142.8h29.8v-57.9h42.8c14.2,0,26.4-5.9,34.2-15.6l-29.2,73.5h29.5
	l8.6-21.6h66.7l8.7,21.6h29.4l-7.9-19.9c13.2,12.5,31.3,19.9,51,19.9c33.4,0,60.6-20.7,69.7-49.8c8.7,28.7,34.7,49.8,69.6,49.8
	c40,0,72.8-29.2,72.8-71.4c0-2.4-0.1-4.7-0.3-7c14.6,16,43.6,18.4,46.8,19c4.3,0.8,29.4,2.9,29.4,16.1c0,9.8-11.1,16-25.4,16.1
	c-13.5,0.2-34.3-9.6-47-22.6l-13.6,24.9c20.1,17.5,41.9,24.8,61.1,24.8c30.5,0,54.4-18.4,54.4-43.4
	C1048,480.7,997.9,477.5,992.7,476.6z M536,477.4h-39.2v-30.5h39.1c9.2,0,17.9,5.7,17.9,15.2C553.8,472.1,544.5,477.4,536,477.4z
	 M593.4,513.5l22.7-57.1l22.6,57.1H593.4z M869.9,535.2c-25.4,0-41.8-20.2-41.8-44.4c0-24,15.4-44.4,41.8-44.4
	c23.7,0,41.7,18,41.7,44.4C911.6,514.7,896.5,535.2,869.9,535.2z"/>
<path class="st1" d="M344.1,440.6l4.4,4.4c24.7-24.7,63.9-25.6,87.5-2l4.5-4.5C414.5,412.5,371.3,413.4,344.1,440.6z"/>
<path class="st2" d="M425,452.9l5.6-5.6c-21.1-21.2-57.3-18.1-77.1,1.7l5.5,5.5C377.4,436.1,407.3,435.2,425,452.9z"/>
<path class="st3" d="M416.2,462.8l4.1-4.1c-15.5-15.5-42-13.2-56.5,1.3l4,4C381.3,450.5,403.2,449.8,416.2,462.8z"/>
<path class="st0" d="M445.5,440l-20.4,20.4c7.2,7.7,11.5,18.6,11.5,31.5c0,23.9-15.1,44.2-41.6,44.2c-25.3,0-41.7-20.1-41.7-44.2
	c0-10.2,2.8-19.7,8.1-27.3L341,444.1c-1.1,1.2-2.3,2.4-3.3,3.7c-12.7-16.4-32.9-27-57.6-27c-23.6,0-44.2,10.4-57.4,27
	c-12.7-16.4-32.9-27-57.6-27c-35.2,0-63.9,23.2-70.9,55.7v-55.7H45.5v27.5h20.1v115h28.6v-55.7C101,539,128,563,165.1,563
	c23.3,0,44.2-10.1,57.5-26.8c12.8,16.3,32.9,26.8,57.5,26.8c23.3,0,44.2-10.1,57.5-26.8c12.8,16.3,32.9,26.8,57.5,26.8
	c39.8,0,72.5-29.1,72.5-71.1C467.6,471.6,459.4,453.1,445.5,440z M165.1,536.1c-25.3,0-41.7-20.1-41.7-44.2
	c0-23.9,15.4-44.2,41.7-44.2c23.6,0,41.6,18,41.6,44.2C206.7,515.8,191.6,536.1,165.1,536.1z M280.1,536.1
	c-25.3,0-41.7-20.1-41.7-44.2c0-23.9,15.4-44.2,41.7-44.2c23.6,0,41.6,18,41.6,44.2C321.6,515.8,306.6,536.1,280.1,536.1z"/>
<path class="st0" d="M370.1,492.9c0-1,0-4.1,1.7-5c1.8-1,5.4,0.3,5.4,0.3l0,0l7.5,11l6.1-30.2c0,0,1.3-3.7,5-3
	c3.8,0.7,3.7,4.5,3.7,4.5l-3.6,21.1l14.4,0c0,0,4.5,1.1,4.1,6s-5.5,23-5.5,23c-7.2,0-14.3,0.1-21.5,0.1L370.1,492.9z"/>
<path class="st0" d="M992.7,476.6c-5-0.9-29.2-3-29.2-16.8c0-9.4,9.4-13.2,20.9-13.4c12.6-0.1,27.8,4.1,36.1,10.5l16.9-20.4
	c-16.1-11.5-35.8-17.1-53.4-16.9c-25.4,0.3-47,12.6-49.7,37.1c-11.7-22-34.8-37.3-64.5-37.3c-33.6,0-61.2,21-69.9,51h-69.4v27.5H772
	c-0.2,1.2-0.4,2.4-0.7,3.5c-4.5,20.2-19.6,33.9-40.8,33.9c-25.2,0-41.8-20.4-41.8-44.4c0-25.1,17-44.5,41.8-44.5
	c9.4,0,17.6,2.6,24.9,7.9l17.6-22.3c-12.5-8.4-26.7-12.6-42.5-12.6c-40.1,0-71,29.8-72.7,68.3l-27-68.2h-29.5l-18.6,46.8
	c0.1-1.3,0.2-2.6,0.2-3.9c0-26.1-19.2-42.7-43.3-42.7H467v142.8h29.8v-57.9h42.8c14.2,0,26.4-5.9,34.2-15.6l-29.2,73.5h29.5
	l8.6-21.6h66.7l8.7,21.6h29.4l-7.9-19.9c13.2,12.5,31.3,19.9,51,19.9c33.4,0,60.6-20.7,69.7-49.8c8.7,28.7,34.7,49.8,69.6,49.8
	c40,0,72.8-29.2,72.8-71.4c0-2.4-0.1-4.7-0.3-7c14.6,16,43.6,18.4,46.8,19c4.3,0.8,29.4,2.9,29.4,16.1c0,9.8-11.1,16-25.4,16.1
	c-13.5,0.2-34.3-9.6-47-22.6l-13.6,24.9c20.1,17.5,41.9,24.8,61.1,24.8c30.5,0,54.4-18.4,54.4-43.4
	C1048,480.7,997.9,477.5,992.7,476.6z M536,477.4h-39.2v-30.5h39.1c9.2,0,17.9,5.7,17.9,15.2C553.8,472.1,544.5,477.4,536,477.4z
	 M593.4,513.5l22.7-57.1l22.6,57.1H593.4z M869.9,535.2c-25.4,0-41.8-20.2-41.8-44.4c0-24,15.4-44.4,41.8-44.4
	c23.7,0,41.7,18,41.7,44.4C911.6,514.7,896.5,535.2,869.9,535.2z"/>
<path class="st1" d="M344.1,440.6l4.4,4.4c24.7-24.7,63.9-25.6,87.5-2l4.5-4.5C414.5,412.5,371.3,413.4,344.1,440.6z"/>
<path class="st2" d="M425,452.9l5.6-5.6c-21.1-21.2-57.3-18.1-77.1,1.7l5.5,5.5C377.4,436.1,407.3,435.2,425,452.9z"/>
<path class="st3" d="M416.2,462.8l4.1-4.1c-15.5-15.5-42-13.2-56.5,1.3l4,4C381.3,450.5,403.2,449.8,416.2,462.8z"/>
<path class="st0" d="M445.5,440l-20.4,20.4c7.2,7.7,11.5,18.6,11.5,31.5c0,23.9-15.1,44.2-41.6,44.2c-25.3,0-41.7-20.1-41.7-44.2
	c0-10.2,2.8-19.7,8.1-27.3L341,444.1c-1.1,1.2-2.3,2.4-3.3,3.7c-12.7-16.4-32.9-27-57.6-27c-23.6,0-44.2,10.4-57.4,27
	c-12.7-16.4-32.9-27-57.6-27c-35.2,0-63.9,23.2-70.9,55.7v-55.7H45.5v27.5h20.1v115h28.6v-55.7C101,539,128,563,165.1,563
	c23.3,0,44.2-10.1,57.5-26.8c12.8,16.3,32.9,26.8,57.5,26.8c23.3,0,44.2-10.1,57.5-26.8c12.8,16.3,32.9,26.8,57.5,26.8
	c39.8,0,72.5-29.1,72.5-71.1C467.6,471.6,459.4,453.1,445.5,440z M165.1,536.1c-25.3,0-41.7-20.1-41.7-44.2
	c0-23.9,15.4-44.2,41.7-44.2c23.6,0,41.6,18,41.6,44.2C206.7,515.8,191.6,536.1,165.1,536.1z M280.1,536.1
	c-25.3,0-41.7-20.1-41.7-44.2c0-23.9,15.4-44.2,41.7-44.2c23.6,0,41.6,18,41.6,44.2C321.6,515.8,306.6,536.1,280.1,536.1z"/>
<path class="st0" d="M370.1,492.9c0-1,0-4.1,1.7-5c1.8-1,5.4,0.3,5.4,0.3l0,0l7.5,11l6.1-30.2c0,0,1.3-3.7,5-3
	c3.8,0.7,3.7,4.5,3.7,4.5l-3.6,21.1l14.4,0c0,0,4.5,1.1,4.1,6s-5.5,23-5.5,23c-7.2,0-14.3,0.1-21.5,0.1L370.1,492.9z"/>
</svg>
