<?xml version="1.0" encoding="utf-8"?>
<!-- Generator: Adobe Illustrator 22.0.1, SVG Export Plug-In . SVG Version: 6.00 Build 0)  -->
<svg version="1.1" id="Layer_1" xmlns="http://www.w3.org/2000/svg" xmlns:xlink="http://www.w3.org/1999/xlink" x="0px" y="0px"
	 viewBox="0 0 1080 1080" style="enable-background:new 0 0 1080 1080;" xml:space="preserve">
<style type="text/css">
	.st0{fill:#FFFFFF;}
	.st1{fill:#83C341;stroke:#83C341;stroke-width:0.5;stroke-miterlimit:10;}
	.st2{fill:#FFDD15;stroke:#FFDD15;stroke-width:0.25;stroke-miterlimit:10;}
	.st3{fill:#EC1C24;stroke:#EC1C24;stroke-width:0.5;stroke-miterlimit:10;}
</style>
<path class="st0" d="M997.2,492.7c-5-0.9-29.5-3-29.5-17c0-9.5,9.5-13.3,21.1-13.5c12.7-0.1,28.1,4.1,36.4,10.6l17.1-20.6
	c-16.3-11.6-36.1-17.3-53.9-17.1c-25.7,0.3-47.4,12.7-50.2,37.5c-11.8-22.2-35.1-37.7-65.1-37.7c-33.9,0-61.8,21.2-70.6,51.5h-70.1
	v27.8h41.8c-0.2,1.2-0.4,2.4-0.7,3.5c-4.5,20.4-19.8,34.2-41.1,34.2c-25.4,0-42.2-20.6-42.2-44.9c0-25.3,17.2-45,42.2-45
	c9.5,0,17.8,2.6,25.1,7.9l17.8-22.5c-12.6-8.4-27-12.7-43-12.7c-40.5,0-71.7,30.1-73.4,68.9l-27.3-68.8h-29.8l-18.7,47.2
	c0.1-1.3,0.2-2.6,0.2-4c0-26.4-19.4-43.2-43.8-43.2h-73.3v144.1h30.1v-58.4h43.3c14.3,0,26.6-6,34.5-15.7l-29.4,74.2h29.8l8.7-21.8
	h67.3l8.8,21.8H689l-8-20.1c13.4,12.6,31.6,20.1,51.4,20.1c33.7,0,61.2-20.8,70.3-50.3c8.8,29,35,50.3,70.3,50.3
	c40.3,0,73.5-29.5,73.5-72.1c0-2.4-0.1-4.7-0.3-7.1c14.8,16.2,44.1,18.5,47.2,19.1c4.3,0.8,29.7,2.9,29.7,16.3
	c0,9.9-11.2,16.2-25.6,16.3c-13.6,0.2-34.6-9.7-47.4-22.8l-13.7,25.2c20.3,17.7,42.3,25,61.7,25c30.8,0,54.9-18.6,54.9-43.9
	C1053,496.9,1002.4,493.6,997.2,492.7z M536.1,493.5h-39.5v-30.8H536c9.3,0,18.1,5.7,18.1,15.4C554.1,488.2,544.7,493.5,536.1,493.5
	z M594.1,530.1l22.9-57.6l22.8,57.6H594.1z M873.2,551.9c-25.6,0-42.2-20.4-42.2-44.9c0-24.2,15.6-44.9,42.2-44.9
	c23.9,0,42.1,18.2,42.1,44.9C915.3,531.3,900,551.9,873.2,551.9z"/>
<path class="st1" d="M342.4,456.4l4.4,4.4c25-25,64.5-25.9,88.4-2l4.5-4.5C413.5,428,369.9,429,342.4,456.4z"/>
<path class="st2" d="M424.1,468.9l5.7-5.7c-21.3-21.4-57.9-18.2-77.8,1.7l5.5,5.5C376,451.9,406.2,451,424.1,468.9z"/>
<path class="st3" d="M415.2,478.8l4.1-4.1c-15.6-15.7-42.4-13.4-57,1.3l4.1,4.1C380,466.4,402.1,465.7,415.2,478.8z"/>
<path class="st0" d="M444.8,455.8l-20.6,20.6c7.2,7.8,11.6,18.8,11.6,31.8c0,24.1-15.2,44.7-42,44.7c-25.5,0-42.1-20.3-42.1-44.7
	c0-10.3,2.8-19.9,8.1-27.6L339.3,460c-1.1,1.2-2.3,2.4-3.3,3.7c-12.8-16.5-33.2-27.3-58.2-27.3c-23.8,0-44.6,10.5-57.9,27.3
	c-12.8-16.5-33.2-27.3-58.2-27.3c-35.5,0-64.5,23.4-71.5,56.2v-56.2H41v27.8h20.3v116.1h28.8V524c6.8,31.8,34.1,56,71.5,56
	c23.6,0,44.6-10.2,58-27.1c12.9,16.4,33.2,27.1,58,27.1c23.6,0,44.6-10.2,58-27.1c12.9,16.4,33.2,27.1,58,27.1
	c40.2,0,73.2-29.3,73.2-71.8C467,487.7,458.8,469,444.8,455.8z M161.7,552.9c-25.5,0-42.1-20.3-42.1-44.7
	c0-24.1,15.5-44.7,42.1-44.7c23.8,0,42,18.1,42,44.7C203.6,532.3,188.4,552.9,161.7,552.9z M277.8,552.9
	c-25.5,0-42.1-20.3-42.1-44.7c0-24.1,15.5-44.7,42.1-44.7c23.8,0,42,18.1,42,44.7C319.7,532.3,304.5,552.9,277.8,552.9z"/>
<path class="st0" d="M368.7,509.2c0-1,0-4.1,1.7-5.1c1.8-1,5.5,0.3,5.5,0.3l0,0l7.6,11.2l6.2-30.4c0,0,1.3-3.8,5.1-3
	c3.8,0.8,3.8,4.5,3.8,4.5l-3.7,21.3l14.5,0c0,0,4.5,1.1,4.1,6.1c-0.4,5-5.5,23.2-5.5,23.2c-7.2,0-14.5,0.1-21.7,0.1L368.7,509.2z"/>
</svg>
