<?xml version="1.0" encoding="utf-8"?>
<!-- Generator: Adobe Illustrator 22.0.1, SVG Export Plug-In . SVG Version: 6.00 Build 0)  -->
<svg version="1.1" id="Layer_1" xmlns="http://www.w3.org/2000/svg" xmlns:xlink="http://www.w3.org/1999/xlink" x="0px" y="0px"
	 viewBox="0 0 1080 1080" style="enable-background:new 0 0 1080 1080;" xml:space="preserve">
<style type="text/css">
	.st0{fill:#26347B;stroke:#26347B;stroke-miterlimit:10;}
	.st1{fill:#FFFFFF;}
	.st2{fill:#83C341;stroke:#83C341;stroke-width:0.5;stroke-miterlimit:10;}
	.st3{fill:#FFDD15;stroke:#FFDD15;stroke-width:0.25;stroke-miterlimit:10;}
	.st4{fill:#EC1C24;stroke:#EC1C24;stroke-width:0.5;stroke-miterlimit:10;}
</style>
<path class="st0" d="M1005.7,860.8H100.4c-8.9,0-16.3-7.3-16.3-16.3V216.3c0-8.9,7.3-16.3,16.3-16.3h905.3c8.9,0,16.3,7.3,16.3,16.3
	v628.3C1022,853.5,1014.7,860.8,1005.7,860.8z"/>
<path class="st1" d="M861,657.3c-6.5-1.2-38.1-3.9-38.1-21.9c0-12.2,12.2-17.1,27.3-17.4c16.4-0.1,36.3,5.3,47.1,13.6l22.1-26.6
	c-21.1-14.9-46.7-22.3-69.7-22c-33.2,0.4-61.3,16.4-64.9,48.3c-15.2-28.7-45.4-48.5-84.1-48.5c-43.8,0-79.8,27.3-91.2,66.4H519v35.8
	h54.1c-0.3,1.6-0.5,3.1-0.9,4.5c-5.8,26.3-25.6,44.1-53.2,44.1c-32.9,0-54.6-26.6-54.6-57.8c0-32.7,22.2-58,54.6-58
	c12.2,0,23,3.4,32.5,10.2l23-29c-16.2-10.9-34.8-16.3-55.5-16.3c-52.3,0-92.6,38.8-94.8,88.8L389,582.8h-38.5l-24.2,60.9
	c0.1-1.7,0.2-3.4,0.2-5.1c0-34-25.1-55.6-56.5-55.6h-94.8v185.8h38.9v-75.3H270c18.5,0,34.4-7.7,44.6-20.3l-38,95.6H315l11.2-28.1
	h87l11.3,28.1h38.3l-10.3-25.9c17.3,16.3,40.9,25.9,66.5,25.9c43.5,0,79-26.9,90.9-64.8c11.4,37.3,45.3,64.8,90.8,64.8
	c52.1,0,95-38,95-93c0-3.1-0.2-6.1-0.4-9.1c19.1,20.9,56.9,23.9,61,24.7c5.6,1,38.3,3.8,38.3,21c0,12.7-14.4,20.9-33.1,21
	c-17.5,0.3-44.6-12.4-61.2-29.2l-17.9,32.3c26.3,22.8,54.7,32.3,79.7,32.3c39.8,0,71-24,71-56.5C933.1,662.6,867.8,658.5,861,657.3z
	 M265.2,658.4h-51.1v-39.7h51c12,0,23.4,7.4,23.4,19.8C288.4,651.5,276.3,658.4,265.2,658.4z M340.1,705.4l29.6-74.3l29.5,74.3
	H340.1z M700.7,733.5c-33.1,0-54.6-26.3-54.6-57.8c0-31.2,20.1-57.8,54.6-57.8c30.9,0,54.5,23.5,54.5,57.8
	C755.2,707,735.4,733.5,700.7,733.5z"/>
<path class="st2" d="M711.7,327.8l7.9,7.8c44.4-44,114.8-45.6,157.2-3.6l8.1-8C838,277.7,760.5,279.4,711.7,327.8z"/>
<path class="st3" d="M857,349.7l10.1-10c-38-37.7-103-32.2-138.5,3.1l9.9,9.8C771.5,319.8,825.2,318.2,857,349.7z"/>
<path class="st4" d="M841.1,367.3l7.4-7.3c-27.8-27.6-75.5-23.6-101.5,2.2l7.2,7.2C778.5,345.3,817.8,344.2,841.1,367.3z"/>
<path class="st1" d="M893.8,326.7L857.1,363c12.9,13.8,20.7,33.1,20.7,56.1c0,42.6-27.1,78.8-74.7,78.8c-45.4,0-74.8-35.9-74.8-78.8
	c0-18.1,5.1-35.1,14.5-48.6L706,334c-2,2.2-4.1,4.3-5.9,6.6c-22.9-29.1-59-48.2-103.5-48.2c-42.4,0-79.4,18.6-103,48.2
	c-22.9-29.1-59-48.2-103.5-48.2c-63.2,0-114.7,41.2-127.3,99.1v-99.2h-87.5v49h36.2v204.7h51.3v-99.2
	c12.1,56.1,60.6,98.8,127.3,98.8c41.9,0,79.4-17.9,103.3-47.8c22.9,29,59.1,47.8,103.3,47.8c41.9,0,79.4-17.9,103.3-47.8
	c22.9,29,59.1,47.8,103.3,47.8c71.5,0,130.3-51.8,130.3-126.6C933.4,383,918.8,350,893.8,326.7z M390,497.9
	c-45.4,0-74.8-35.9-74.8-78.8c0-42.6,27.6-78.8,74.8-78.8c42.4,0,74.7,32,74.7,78.8C464.7,461.7,437.6,497.9,390,497.9z
	 M596.6,497.9c-45.4,0-74.8-35.9-74.8-78.8c0-42.6,27.6-78.8,74.8-78.8c42.4,0,74.7,32,74.7,78.8
	C671.2,461.7,644.1,497.9,596.6,497.9z"/>
<path class="st1" d="M758.3,420.9c0,0-0.6-6.1,3-9c3.7-2.8,9.7,0.5,9.7,0.5l13.6,19.7l11-53.7c0,0,2.3-6.7,9-5.3
	c6.8,1.3,6.7,8,6.7,8l-6.5,37.6l25.9,0.1c0,0,8.1,1.9,7.4,10.7c-0.7,8.8-9.9,41-9.9,41l-38.6,0.3"/>
</svg>
